<svg width="12794" height="196" viewBox="0 0 12794 196" fill="none" xmlns="http://www.w3.org/2000/svg">
<path d="M200.696 66.9888C236.229 81.6818 276.138 81.6818 311.671 66.9888L435.624 15.7337C484.564 -4.50343 539.533 -4.50343 588.474 15.7337L691.489 58.3311C740.43 78.5683 795.399 78.5682 844.339 58.3311L947.354 15.7338C996.295 -4.50337 1051.26 -4.50328 1100.2 15.7341L1203.22 58.3316C1252.16 78.569 1307.13 78.569 1356.07 58.3316L1459.08 15.7342C1508.03 -4.50323 1562.99 -4.50321 1611.94 15.7342L1714.95 58.3316C1763.89 78.569 1818.86 78.569 1867.8 58.3316L1970.82 15.7342C2019.76 -4.50323 2074.73 -4.5032 2123.67 15.7343L2226.68 58.3315C2275.62 78.569 2330.59 78.569 2379.53 58.3316L2482.55 15.7342C2531.49 -4.50324 2586.46 -4.50322 2635.4 15.7342L2738.41 58.3315C2787.35 78.569 2842.32 78.569 2891.26 58.3315L2994.28 15.7341C3043.22 -4.50326 3098.19 -4.50337 3147.13 15.7338L3250.14 58.3312C3299.08 78.5683 3354.05 78.5682 3402.99 58.3311L3506.01 15.734C3554.95 -4.5033 3609.92 -4.50313 3658.86 15.7345L3761.87 58.3313C3810.81 78.5689 3865.78 78.5691 3914.72 58.3318L4017.74 15.734C4066.68 -4.50329 4121.65 -4.5031 4170.59 15.7345L4273.6 58.3312C4322.54 78.5689 4377.51 78.5691 4426.45 58.3318L4529.47 15.734C4578.41 -4.50331 4633.38 -4.50315 4682.32 15.7344L4785.33 58.3314C4834.27 78.569 4889.24 78.5691 4938.18 58.3318L5041.2 15.734C5090.14 -4.5033 5145.11 -4.50312 5194.05 15.7345L5297.06 58.3313C5346 78.5689 5400.97 78.5691 5449.91 58.3318L5552.93 15.734C5601.87 -4.5033 5656.84 -4.50312 5705.78 15.7345L5808.79 58.3313C5857.73 78.5689 5912.7 78.5691 5961.64 58.3318L6064.66 15.734C6113.6 -4.50331 6168.57 -4.50315 6217.51 15.7344L6320.52 58.3314C6369.46 78.569 6424.43 78.5691 6473.37 58.3318L6576.39 15.7338C6625.33 -4.50336 6680.3 -4.50328 6729.24 15.7341L6832.57 58.4632C6881.52 78.7006 6936.48 78.7006 6985.43 58.4631L7088.44 15.8659C7137.38 -4.3716 7192.35 -4.37162 7241.29 15.8658L7344.3 58.4631C7393.25 78.7006 7448.22 78.7006 7497.16 58.4631L7600.17 15.8658C7649.11 -4.37162 7704.08 -4.37165 7753.02 15.8658L7856.04 58.4632C7904.98 78.7006 7959.95 78.7006 8008.89 58.4632L8111.9 15.8659C8160.84 -4.3716 8215.81 -4.37159 8264.75 15.8659L8367.77 58.463C8416.71 78.7006 8471.68 78.7006 8520.62 58.4631L8623.63 15.8659C8672.57 -4.3716 8727.54 -4.37162 8776.48 15.8658L8879.5 58.4631C8928.44 78.7006 8983.41 78.7006 9032.35 58.4631L9135.36 15.8659C9184.3 -4.3716 9239.27 -4.37162 9288.21 15.8658L9391.23 58.4631C9440.17 78.7006 9495.14 78.7006 9544.08 58.4631L9647.09 15.8658C9696.03 -4.37164 9751 -4.37168 9799.94 15.8657L9902.96 58.4633C9951.9 78.7007 10006.9 78.7006 10055.8 58.4632L10158.8 15.8659C10207.8 -4.3716 10262.7 -4.37162 10311.7 15.8658L10414.7 58.4631C10463.6 78.7006 10518.6 78.7006 10567.5 58.4631L10670.6 15.8659C10719.5 -4.3716 10774.5 -4.37162 10823.4 15.8658L10926.4 58.4631C10975.4 78.7006 11030.3 78.7006 11079.3 58.4631L11182.3 15.8659C11231.2 -4.3716 11286.2 -4.37162 11335.1 15.8658L11438.1 58.4631C11487.1 78.7006 11542.1 78.7006 11591 58.4631L11694 15.8659C11743 -4.3716 11797.9 -4.37162 11846.9 15.8658L11949.9 58.4631C11998.8 78.7006 12053.8 78.7006 12102.7 58.4631L12205.7 15.8659C12254.7 -4.3716 12309.7 -4.37162 12358.6 15.8658L12482.6 67.1495C12518.1 81.8244 12558 81.8245 12593.5 67.1496L12676.6 32.7501C12732.5 9.65398 12793.9 50.7092 12793.9 111.15V111.15C12793.9 158.006 12755.9 195.99 12709.1 195.989L84.8461 195.748C37.9866 195.747 0 157.76 0 110.9V110.9C0 50.4531 61.41 9.39336 117.27 32.4918L200.696 66.9888Z" fill="currentcolor"/>
</svg>
