<svg width="6306" height="91" viewBox="0 0 6306 91" fill="none" xmlns="http://www.w3.org/2000/svg">
<path d="M98.9832 27.7389C116.463 34.9333 136.078 34.9333 153.558 27.7389L189.327 13.0171C229.722 -3.60808 275.047 -3.60805 315.441 13.0171V13.0171C355.835 29.6423 401.161 29.6423 441.555 13.0171V13.0171C481.949 -3.60805 527.274 -3.60798 567.669 13.0173V13.0173C608.063 29.6426 653.388 29.6427 693.782 13.0173V13.0173C734.176 -3.60798 779.502 -3.60798 819.896 13.0173V13.0173C860.29 29.6427 905.616 29.6426 946.01 13.0173V13.0173C986.404 -3.60796 1031.73 -3.60798 1072.12 13.0173V13.0173C1112.52 29.6426 1157.84 29.6426 1198.24 13.0173V13.0173C1238.63 -3.60796 1283.96 -3.60799 1324.35 13.0173V13.0173C1364.75 29.6427 1410.07 29.6426 1450.46 13.0173V13.0173C1490.86 -3.60798 1536.18 -3.608 1576.58 13.0171V13.0171C1616.97 29.6422 1662.3 29.6422 1702.69 13.0171V13.0171C1743.09 -3.60799 1788.41 -3.60798 1828.81 13.0173V13.0173C1869.2 29.6427 1914.53 29.6424 1954.92 13.0173V13.0173C1995.31 -3.60772 2040.64 -3.60798 2081.03 13.0173V13.0173C2121.43 29.6427 2166.75 29.6424 2207.15 13.0174V13.0174C2247.54 -3.60771 2292.87 -3.60798 2333.26 13.0173V13.0173C2373.65 29.6426 2418.98 29.6424 2459.37 13.0173V13.0173C2499.77 -3.60773 2545.09 -3.60798 2585.49 13.0173V13.0173C2625.88 29.6427 2671.21 29.6424 2711.6 13.0173V13.0173C2752 -3.60771 2797.32 -3.60798 2837.71 13.0173V13.0173C2878.11 29.6427 2923.43 29.6424 2963.83 13.0174V13.0174C3004.22 -3.60772 3049.55 -3.60798 3089.94 13.0173V13.0173C3130.34 29.6426 3175.66 29.6426 3216.06 13.0175V13.0175C3256.45 -3.60779 3301.85 -3.57573 3342.25 13.0497V13.0497C3382.64 29.675 3428.05 29.7072 3468.44 13.0819V13.0819C3508.84 -3.54343 3554.16 -3.54343 3594.55 13.0819V13.0819C3634.95 29.7072 3680.27 29.7072 3720.67 13.0819V13.0819C3761.06 -3.54343 3806.39 -3.54339 3846.78 13.0819V13.0819C3887.18 29.7072 3932.5 29.7072 3972.9 13.0819V13.0819C4013.29 -3.54341 4058.62 -3.54343 4099.01 13.0819V13.0819C4139.4 29.7072 4184.73 29.7072 4225.12 13.0819V13.0819C4265.52 -3.54341 4310.84 -3.54343 4351.24 13.0819V13.0819C4391.63 29.7072 4436.96 29.7072 4477.35 13.0819V13.0819C4517.74 -3.54343 4563.07 -3.54343 4603.46 13.0819V13.0819C4643.86 29.7072 4689.18 29.7072 4729.58 13.0819V13.0819C4769.97 -3.54342 4815.3 -3.54336 4855.69 13.0819V13.0819C4896.09 29.7071 4941.41 29.7072 4981.81 13.0819V13.0819C5022.2 -3.54341 5067.53 -3.54343 5107.92 13.0819V13.0819C5148.31 29.7072 5193.64 29.7072 5234.03 13.0819V13.0819C5274.43 -3.54343 5319.75 -3.54343 5360.15 13.0819V13.0819C5400.54 29.7072 5445.87 29.7072 5486.26 13.0819V13.0819C5526.65 -3.54343 5571.98 -3.54343 5612.37 13.0819V13.0819C5652.77 29.7072 5698.09 29.7072 5738.49 13.0819V13.0819C5778.88 -3.54343 5824.21 -3.54343 5864.6 13.0819V13.0819C5905 29.7072 5950.32 29.7072 5990.72 13.0819V13.0819C6031.11 -3.54343 6076.43 -3.54342 6116.83 13.0819L6152.63 27.8177C6170.09 35.0033 6189.68 35.0033 6207.14 27.8177L6248.48 10.8043C6275.9 -0.481996 6306 19.68 6306 49.3339V49.3339C6306 72.3453 6287.35 90.9996 6264.33 90.9992L41.6691 90.8812C18.6557 90.8808 0 72.2247 0 49.2114V49.2114C0 19.5543 30.1043 -0.609873 57.5294 10.6776L98.9832 27.7389Z" fill="currentcolor"/>
</svg>
