<svg width="88" height="72" viewBox="0 0 88 72" fill="none" xmlns="http://www.w3.org/2000/svg">
<path d="M24.9333 69.0612V69.9429L25.7156 71.0204L27.5733 71.8041L30.8 72L32.3644 71.7061L34.6133 71.3143L37.6444 70.0408L38.2311 69.7469L39.4044 69.0612L41.0667 67.9837L43.12 66.6122L44.3911 65.7306L45.9556 64.5551L47.2267 63.5755L48.3022 62.6939L49.28 61.9102L50.0622 61.2245L51.04 60.4408L51.92 59.5592L52.8 58.6776L53.3867 58.0898L53.8756 57.6L54.4622 57.0122L54.9511 56.5224L55.3422 56.1306L55.6356 56.0327L56.6133 55.8367L57.5911 55.6408L58.5689 55.4449L59.3511 55.249L60.1333 55.0531L60.5244 54.8571L61.1111 54.6612L61.5022 54.4653L61.8933 54.3673L62.2844 54.0735L63.0667 53.4857L63.1644 52.8L63.36 52.2122L63.1644 51.6245L62.9689 51.0367L62.7733 50.449L62.5778 50.0571L62.3822 49.6653L62.1867 49.2735L61.8933 48.6857L61.6 48.098L62.0889 47.5102L62.48 46.9224L63.0667 46.1388L63.7511 45.1592L64.4356 44.1796L64.7289 43.7878L65.4133 42.8082L65.9022 42.2204L66.5867 41.4367L66.9778 40.9469L67.4667 40.751H67.9556L68.2489 40.9469L68.64 41.2408L68.9333 41.4367L69.4222 41.8286L69.8133 42.2204L70.5956 43.0041L71.4756 43.7878L72.2578 44.5714L72.9422 45.1592L73.5289 45.7469L74.4089 46.5306L75.0933 47.1184L75.5822 47.5102L75.9733 47.8041L76.56 48.098L76.9511 48.2939L77.5378 48.3918L78.0267 48.4898L78.5156 48.3918L78.9067 48.2939L79.4933 47.902L79.8844 47.5102L80.1778 46.9224L80.3733 46.3347L80.5689 45.551L80.6667 44.9633L80.7644 44.1796L80.8622 43.2V42.0245V41.0449V40.2612L80.7644 39.2816L80.6667 37.9102L80.4711 36.7347L80.1778 35.3633L80.08 34.9714V34.1878V33.4041V33.2082L80.6667 31.7388L81.0578 31.151L81.7422 30.0735L82.4267 28.898L83.0133 27.9184L83.5022 26.9388L84.48 25.1755L85.7511 22.7265L86.4356 21.2571L87.2178 19.298L87.7067 17.7306L88 16.3592V14.9878L87.6089 13.8122L87.0222 13.0286L86.6311 12.7347L85.9467 12.4408H85.36H84.9689H84.5778L83.4044 12.8327L82.6222 13.1265L81.6444 13.6163L80.8622 14.1061L79.8844 14.6939L78.8089 15.3796L77.5378 16.2612L76.3644 17.2408L74.9956 18.4163L73.6267 19.6898L72.6489 20.6694L71.6711 21.649L70.6933 22.6286L69.9111 23.4122L68.9333 24.3918L68.3467 24.9796L67.3689 25.9592L66.5867 26.7429L66.0978 27.1347L65.8044 27.3306H65.4133L65.2178 27.2327L65.4133 26.9388L65.8044 26.1551L66.2933 25.1755L66.4889 24.5878L66.6844 24L66.5867 23.2163L66.4889 22.8245L66.3911 22.6286L66.0978 22.4327L65.8044 22.2367L65.5111 22.0408L65.2178 21.8449L64.6311 21.7469L63.8489 21.649L63.0667 21.551H60.1333H59.7422L58.5689 21.7469H58.3733L57.7867 21.2571L56.8089 20.4735L55.8311 19.6898L54.8533 18.9061L54.0711 18.3184L53.9733 18.2204L54.0711 17.3388L54.1689 16.5551L54.2667 15.7714L54.4622 14.4L54.56 13.4204L54.7556 12.049L54.8533 11.0694L55.0489 9.69796L55.1467 8.52245L55.3422 6.75918L55.44 5.77959V4.40816V3.42857L55.3422 2.84082L55.2444 1.86122L54.6578 1.07755L54.2667 0.685714L53.8756 0.489796L53.2889 0.195918L52.7022 0.0979592L51.92 0H51.1378L50.7467 0.0979592L49.7689 0.293878L48.7911 0.489796L47.8133 0.685714L46.8356 0.979592L45.8578 1.27347L45.0756 1.56735L43.9022 1.95918L43.12 2.25306L42.1422 2.6449L40.9689 3.03673L39.7956 3.52653L38.0356 4.21224L37.0578 4.60408L36.08 5.09388L34.9067 5.58367L33.9289 6.07347L33.3422 6.36735L32.9511 6.56327L32.2667 6.9551L31.7778 6.75918L30.8 6.36735L29.8222 5.97551L29.04 5.77959L28.2578 5.58367L27.28 5.38776L25.7156 4.99592L23.9556 4.60408L22 4.11429L20.6311 3.82041L19.4578 3.62449L17.6978 3.42857L16.5244 3.33061L14.7644 3.13469L13.2 2.93878L12.0267 2.74286L10.8533 2.6449L10.2667 2.54694H9.68L9.09333 2.6449L7.72444 2.74286L6.25778 2.84082L4.98667 2.93878L3.61778 3.33061L2.64 3.62449L1.76 3.91837L1.46667 4.40816L1.07556 4.99592L0.488889 5.77959L0.195556 6.17143L0.0977778 6.9551L0 7.54286L0.0977778 7.93469L0.195556 8.32653L0.391111 9.1102L0.586667 9.89388L0.782222 10.8735L0.977778 11.4612L1.17333 12.2449L1.36889 12.8327L1.56444 13.6163L1.76 14.2041L1.95556 14.9878L2.15111 15.5755L2.34667 16.1633L2.54222 16.751L2.73778 17.3388L2.93333 17.9265L3.12889 18.5143L3.22667 18.9061L3.42222 19.298L3.52 19.4939L3.61778 19.6898L3.81333 20.0816L4.00889 20.6694L4.30222 21.2571L4.59556 21.8449L4.69333 22.0408L4.98667 22.6286L5.37778 23.4122L5.86667 24L6.74667 24.8816L7.33333 25.5673L7.62667 25.8612L8.11556 26.0571L8.50667 26.1551H8.8H8.89778L8.99556 26.5469L9.09333 27.1347L9.28889 27.9184L9.38667 28.3102L9.58222 28.898L9.77778 29.2898L10.7556 29.8776H11.1467L11.7333 29.3878L12.2222 28.1143L12.6133 29.2898L13.2 30.3673L13.5911 30.7592L13.8844 30.8571H14.4711H15.0578H15.5467L16.1333 30.3673L17.8933 28.5061L18.1867 28.1143H18.3822H18.48V28.5061V28.9959V29.6816V30.2694L18.5778 31.0531L18.7733 31.6408L18.8711 32.0327L19.2622 32.6204L19.5556 32.8163H20.3378L21.2178 32.6204L22.2933 32.0327L23.76 30.7592L23.8578 30.8571L23.5644 32.0327L23.4667 33.2082V33.9918L23.5644 34.3837L23.6622 34.9714L23.8578 35.3633L24.0533 35.5592L24.3467 35.6571H24.7378L25.1289 35.5592L25.7156 35.3633L26.4978 34.9714L27.28 34.5796L27.8667 34.2857L28.2578 33.9918H28.4533L28.5511 34.1878L28.4533 34.5796L28.16 35.1673L27.8667 36.1469L27.7689 36.7347L27.6711 37.9102L27.8667 38.6939L28.2578 38.8898L28.6489 38.9878L29.6267 38.8898L30.8 38.5959L31.5822 38.302L32.3644 37.9102L32.7556 37.7143L33.0489 38.1061L32.7556 38.7918L32.4622 39.6735L32.1689 40.4571L32.0711 41.0449L31.9733 41.6327V42.0245L32.1689 42.4163L32.3644 42.6122L32.56 42.7102L32.9511 42.8082H33.6356L34.32 42.7102L35.1022 42.5143L35.8844 42.3184L36.4711 42.1224L36.6667 42.0245L37.0578 43.0041L37.1556 44.1796L35.8844 44.4735L35.1022 44.7673L34.32 45.1592L33.7333 45.551L33.44 46.0408L33.2444 46.8245L33.44 47.5102L34.1244 48.3918L35.0044 49.0776L35.3956 49.3714L35.7867 49.5673L34.1244 49.7633L32.9511 50.0571L32.1689 50.449L31.7778 50.8408L31.5822 51.6245L31.7778 52.4082L32.4622 53.3878L33.1467 54.1714L33.9289 54.8571L32.3644 54.7592L30.8 55.0531L30.2133 55.3469L29.8222 56.3265V57.1102L30.2133 57.8939L30.8 58.8735L31.3867 59.6571L31.5822 59.8531L30.4089 59.6571H29.2356H28.6489H28.2578L27.8667 59.8531L27.5733 60.049L27.3778 60.7347L27.28 61.8122L27.4756 62.4L27.9644 63.5755L28.4533 64.3592L27.9644 65.0449L27.4756 64.9469L26.3022 64.751H25.52L24.7378 64.9469L24.5422 65.7306V66.5143L24.9333 67.298L25.52 68.1796L24.9333 69.0612Z" fill="white"/>
</svg>
